<svg xmlns="http://www.w3.org/2000/svg" viewBox="0 0 640 480"><title>VehicleImageNotFound</title><g style="opacity:0.2"><circle cx="317.99" cy="241.58" r="228.75" style="fill:#231f20"/><path d="M466.73,127.43h-36l-10-25a67,67,0,0,0-62.54-42.34H281.8a67,67,0,0,0-62.54,42.34l-10,25h-36a7.21,7.21,0,0,0-7,9l3.6,14.44a7.21,7.21,0,0,0,7,5.46h12.07a38.25,38.25,0,0,0-13.27,28.87V214a38.15,38.15,0,0,0,9.62,25.21v32.52A19.25,19.25,0,0,0,204.52,291h19.25A19.24,19.24,0,0,0,243,271.77V252.53H397v19.24A19.25,19.25,0,0,0,416.22,291h19.24a19.25,19.25,0,0,0,19.25-19.25V239.25A38.11,38.11,0,0,0,464.33,214V185.17a38.25,38.25,0,0,0-13.27-28.87h12.07a7.21,7.21,0,0,0,7-5.46l3.61-14.44a7.22,7.22,0,0,0-7-9ZM255,116.71a28.86,28.86,0,0,1,26.8-18.14h76.38A28.87,28.87,0,0,1,385,116.71l12,30H243Zm-31.23,97.21c-11.55,0-19.25-7.68-19.25-19.19s7.7-19.18,19.25-19.18,28.87,17.26,28.87,28.77-17.32,9.6-28.87,9.6Zm192.45,0c-11.55,0-28.87,1.92-28.87-9.6s17.32-28.77,28.87-28.77,19.24,7.67,19.24,19.18S427.77,213.92,416.22,213.92Z" style="fill:#fff"/><path d="M201.9,342V311.28h4.7v4.37a11,11,0,0,1,9.78-5.07,13,13,0,0,1,5.12,1A8.15,8.15,0,0,1,225,314.2a10.14,10.14,0,0,1,1.62,3.85,30.27,30.27,0,0,1,.29,5.07V342h-5.22V323.33a14.23,14.23,0,0,0-.6-4.77,5.07,5.07,0,0,0-2.16-2.52,6.94,6.94,0,0,0-3.64-.94,8.51,8.51,0,0,0-5.75,2.11c-1.61,1.42-2.41,4.09-2.41,8V342Z" style="fill:#fff"/><path d="M233,326.66q0-8.55,4.75-12.66a14.31,14.31,0,0,1,9.67-3.42,13.8,13.8,0,0,1,10.37,4.16q4,4.15,4,11.48c0,4-.6,7.07-1.78,9.34a12.66,12.66,0,0,1-5.19,5.29,15.14,15.14,0,0,1-7.43,1.88,13.84,13.84,0,0,1-10.44-4.14Q233,334.45,233,326.66Zm5.36,0c0,3.94.86,6.88,2.58,8.84a8.58,8.58,0,0,0,12.94,0q2.58-3,2.58-9c0-3.8-.87-6.68-2.59-8.64a8.6,8.6,0,0,0-12.93,0Q238.31,320.75,238.31,326.66Z" style="fill:#fff"/><path d="M284.39,305.57v-6h5.21v6Zm0,36.47V311.28h5.21V342Z" style="fill:#fff"/><path d="M297.53,342V311.28h4.67v4.31a11,11,0,0,1,3.85-3.63,10.79,10.79,0,0,1,5.47-1.38,10.19,10.19,0,0,1,5.61,1.42,7.65,7.65,0,0,1,3.08,4q3.65-5.39,9.5-5.39,4.57,0,7,2.54t2.46,7.8V342H334V322.66a14.11,14.11,0,0,0-.51-4.5,4.36,4.36,0,0,0-1.84-2.22,5.75,5.75,0,0,0-3.13-.84,7.25,7.25,0,0,0-5.38,2.16q-2.15,2.16-2.15,6.91V342h-5.21v-20a8.85,8.85,0,0,0-1.27-5.21,4.83,4.83,0,0,0-4.18-1.74,7.57,7.57,0,0,0-4.06,1.16,6.53,6.53,0,0,0-2.71,3.39,19,19,0,0,0-.84,6.43v16Z" style="fill:#fff"/><path d="M367,338.24a19.61,19.61,0,0,1-5.57,3.48,16.24,16.24,0,0,1-5.75,1c-3.38,0-6-.82-7.79-2.48a8.15,8.15,0,0,1-2.72-6.32,8.53,8.53,0,0,1,3.72-7.13,12.84,12.84,0,0,1,3.75-1.71,37.2,37.2,0,0,1,4.63-.78,47.11,47.11,0,0,0,9.3-1.8c0-.71,0-1.16,0-1.36,0-2.12-.49-3.62-1.48-4.48q-2-1.77-5.94-1.77a9.21,9.21,0,0,0-5.43,1.29,7.87,7.87,0,0,0-2.59,4.56l-5.1-.7a12.71,12.71,0,0,1,2.29-5.28,10,10,0,0,1,4.61-3.1,20.58,20.58,0,0,1,7-1.09,18.43,18.43,0,0,1,6.4.93,8.41,8.41,0,0,1,3.62,2.33,8.26,8.26,0,0,1,1.62,3.55,29.84,29.84,0,0,1,.26,4.81v6.95a74.37,74.37,0,0,0,.33,9.19,11.72,11.72,0,0,0,1.32,3.7h-5.44A11.27,11.27,0,0,1,367,338.24Zm-.43-11.64a38.29,38.29,0,0,1-8.52,2,19.57,19.57,0,0,0-4.54,1,4.56,4.56,0,0,0-2.06,1.69,4.49,4.49,0,0,0-.72,2.48,4.43,4.43,0,0,0,1.58,3.48,6.81,6.81,0,0,0,4.61,1.39,10.73,10.73,0,0,0,5.36-1.32,8.12,8.12,0,0,0,3.45-3.61,12.54,12.54,0,0,0,.84-5.21Z" style="fill:#fff"/><path d="M379,344.58l5.07.76a4.79,4.79,0,0,0,1.77,3.41,8.64,8.64,0,0,0,5.3,1.45,9.28,9.28,0,0,0,5.59-1.45,7.08,7.08,0,0,0,2.66-4.05,33.15,33.15,0,0,0,.38-6.69,10.74,10.74,0,0,1-8.51,4,11.61,11.61,0,0,1-9.82-4.58,17.61,17.61,0,0,1-3.48-11,20.46,20.46,0,0,1,1.59-8.12,12.85,12.85,0,0,1,4.62-5.75,12.5,12.5,0,0,1,7.11-2,11,11,0,0,1,9,4.41v-3.71H405v26.58c0,4.79-.49,8.19-1.46,10.18a10.72,10.72,0,0,1-4.64,4.74,16,16,0,0,1-7.8,1.74,14.72,14.72,0,0,1-8.89-2.48Q378.86,349.56,379,344.58Zm4.32-18.47c0,4,.8,7,2.4,8.83a7.93,7.93,0,0,0,12.05,0q2.43-2.76,2.43-8.67c0-3.77-.83-6.6-2.5-8.51a7.72,7.72,0,0,0-6-2.87,7.53,7.53,0,0,0-5.91,2.82Q383.29,320.54,383.29,326.11Z" style="fill:#fff"/><path d="M434,332.13l5.39.67a13.11,13.11,0,0,1-4.72,7.32,14.18,14.18,0,0,1-8.81,2.61q-6.74,0-10.7-4.16t-3.95-11.65q0-7.77,4-12.05a13.51,13.51,0,0,1,10.36-4.29,13.13,13.13,0,0,1,10.08,4.2q3.92,4.2,3.91,11.82c0,.31,0,.77,0,1.39H416.57q.29,5.07,2.86,7.76a8.52,8.52,0,0,0,6.43,2.69,8,8,0,0,0,4.9-1.5A10,10,0,0,0,434,332.13Zm-17.11-8.43H434a10.42,10.42,0,0,0-2-5.82,8,8,0,0,0-6.46-3,8.31,8.31,0,0,0-6,2.4A9.52,9.52,0,0,0,416.86,323.7Z" style="fill:#fff"/><path d="M226.91,409.42a19.33,19.33,0,0,1-5.57,3.47,16.07,16.07,0,0,1-5.75,1q-5.07,0-7.79-2.48a8.16,8.16,0,0,1-2.73-6.33A8.54,8.54,0,0,1,208.8,398a12.58,12.58,0,0,1,3.75-1.71,36.86,36.86,0,0,1,4.63-.78,47.87,47.87,0,0,0,9.3-1.8c0-.71,0-1.17,0-1.36,0-2.12-.5-3.62-1.48-4.49q-2-1.77-5.94-1.77a9.21,9.21,0,0,0-5.43,1.29,7.87,7.87,0,0,0-2.59,4.56l-5.1-.69a12.82,12.82,0,0,1,2.29-5.29,10.11,10.11,0,0,1,4.6-3.1,20.68,20.68,0,0,1,7-1.08,18.49,18.49,0,0,1,6.41.93,8.38,8.38,0,0,1,3.62,2.33,8.22,8.22,0,0,1,1.62,3.54,29.93,29.93,0,0,1,.26,4.81v6.95a74.58,74.58,0,0,0,.33,9.2,11.51,11.51,0,0,0,1.32,3.69H228A11.15,11.15,0,0,1,226.91,409.42Zm-.43-11.65a37.87,37.87,0,0,1-8.52,2,19.32,19.32,0,0,0-4.54,1.05,4.46,4.46,0,0,0-2.79,4.17,4.43,4.43,0,0,0,1.58,3.47,6.8,6.8,0,0,0,4.62,1.39,10.73,10.73,0,0,0,5.36-1.32,8.15,8.15,0,0,0,3.45-3.6,12.61,12.61,0,0,0,.84-5.21Z" style="fill:#fff"/><path d="M248.37,413.21l-11.7-30.76h5.5l6.61,18.42q1.07,3,2,6.2.69-2.43,1.94-5.85l6.83-18.77h5.36l-11.64,30.76Z" style="fill:#fff"/><path d="M289.56,409.42a19.37,19.37,0,0,1-5.58,3.47,16,16,0,0,1-5.75,1c-3.38,0-6-.83-7.79-2.48a8.19,8.19,0,0,1-2.72-6.33,8.56,8.56,0,0,1,3.72-7.12,12.58,12.58,0,0,1,3.75-1.71,37.2,37.2,0,0,1,4.63-.78,47.87,47.87,0,0,0,9.3-1.8c0-.71,0-1.17,0-1.36,0-2.12-.49-3.62-1.48-4.49q-2-1.77-5.93-1.77-3.69,0-5.43,1.29a7.87,7.87,0,0,0-2.6,4.56l-5.09-.69a12.68,12.68,0,0,1,2.28-5.29,10.14,10.14,0,0,1,4.61-3.1,20.63,20.63,0,0,1,7-1.08,18.43,18.43,0,0,1,6.4.93,8.32,8.32,0,0,1,3.62,2.33,8.22,8.22,0,0,1,1.62,3.54,28.77,28.77,0,0,1,.26,4.81v6.95a71.73,71.73,0,0,0,.34,9.2,11.73,11.73,0,0,0,1.31,3.69H290.6A10.93,10.93,0,0,1,289.56,409.42Zm-.44-11.65a37.75,37.75,0,0,1-8.51,2,19.43,19.43,0,0,0-4.55,1.05,4.55,4.55,0,0,0-2.06,1.69,4.47,4.47,0,0,0-.72,2.48,4.4,4.4,0,0,0,1.58,3.47,6.77,6.77,0,0,0,4.62,1.39,10.72,10.72,0,0,0,5.35-1.32,8,8,0,0,0,3.45-3.6,12.61,12.61,0,0,0,.84-5.21Z" style="fill:#fff"/><path d="M302.5,376.75v-6h5.21v6Zm0,36.46V382.45h5.21v30.76Z" style="fill:#fff"/><path d="M315.53,413.21V370.75h5.22v42.46Z" style="fill:#fff"/><path d="M348.9,409.42a19.24,19.24,0,0,1-5.58,3.47,16,16,0,0,1-5.75,1c-3.38,0-6-.83-7.79-2.48a8.19,8.19,0,0,1-2.72-6.33,8.56,8.56,0,0,1,3.72-7.12,12.58,12.58,0,0,1,3.75-1.71,37.43,37.43,0,0,1,4.64-.78,47.73,47.73,0,0,0,9.29-1.8c0-.71,0-1.17,0-1.36,0-2.12-.49-3.62-1.48-4.49q-2-1.77-5.93-1.77a9.21,9.21,0,0,0-5.43,1.29,7.87,7.87,0,0,0-2.59,4.56l-5.1-.69a12.56,12.56,0,0,1,2.29-5.29,10.05,10.05,0,0,1,4.6-3.1,20.68,20.68,0,0,1,7-1.08,18.39,18.39,0,0,1,6.4.93,8.32,8.32,0,0,1,3.62,2.33,8.22,8.22,0,0,1,1.62,3.54,28.77,28.77,0,0,1,.26,4.81v6.95a71.73,71.73,0,0,0,.34,9.2,11.73,11.73,0,0,0,1.31,3.69h-5.44A10.93,10.93,0,0,1,348.9,409.42Zm-.44-11.65a37.75,37.75,0,0,1-8.51,2,19.43,19.43,0,0,0-4.55,1.05,4.55,4.55,0,0,0-2.06,1.69,4.61,4.61,0,0,0,.86,5.95,6.77,6.77,0,0,0,4.62,1.39,10.76,10.76,0,0,0,5.36-1.32,8.07,8.07,0,0,0,3.44-3.6,12.61,12.61,0,0,0,.84-5.21Z" style="fill:#fff"/><path d="M366.62,413.21h-4.83V370.75H367V385.9a10.32,10.32,0,0,1,8.43-4.14,12.94,12.94,0,0,1,5.37,1.14,11,11,0,0,1,4.17,3.22,15.56,15.56,0,0,1,2.56,5,20.56,20.56,0,0,1,.93,6.26q0,7.9-3.91,12.22a12.23,12.23,0,0,1-9.38,4.32,9.81,9.81,0,0,1-8.55-4.55Zm-.06-15.61c0,3.69.51,6.35,1.51,8a7.45,7.45,0,0,0,12.57,1.06q2.49-3,2.49-8.85c0-4-.8-7-2.39-8.89A7.28,7.28,0,0,0,375,386a7.5,7.5,0,0,0-5.91,3C367.39,391,366.56,393.86,366.56,397.6Z" style="fill:#fff"/><path d="M394.69,413.21V370.75h5.21v42.46Z" style="fill:#fff"/><path d="M429,403.31l5.39.66a13.14,13.14,0,0,1-4.72,7.33,14.17,14.17,0,0,1-8.8,2.61q-6.75,0-10.71-4.16t-3.95-11.66q0-7.75,4-12a13.54,13.54,0,0,1,10.37-4.28,13.12,13.12,0,0,1,10.07,4.2q3.92,4.2,3.91,11.81c0,.31,0,.78,0,1.4H411.63q.28,5.06,2.87,7.76a8.53,8.53,0,0,0,6.42,2.69,7.94,7.94,0,0,0,4.9-1.51A10,10,0,0,0,429,403.31Zm-17.11-8.43h17.17a10.39,10.39,0,0,0-2-5.82,8,8,0,0,0-6.46-3,8.28,8.28,0,0,0-6,2.41A9.44,9.44,0,0,0,411.92,394.88Z" style="fill:#fff"/></g></svg>